<mxfile host="app.diagrams.net" agent="Mozilla/5.0 (Windows NT 10.0; Win64; x64) AppleWebKit/537.36 (KHTML, like Gecko) Chrome/138.0.0.0 Safari/537.36 Edg/138.0.0.0" version="28.0.7">
  <diagram name="Page-1" id="Ulszlu7Tl4Y4RBOvYeGn">
    <mxGraphModel dx="938" dy="666" grid="1" gridSize="10" guides="1" tooltips="1" connect="1" arrows="1" fold="1" page="1" pageScale="1" pageWidth="850" pageHeight="1100" math="0" shadow="0">
      <root>
        <mxCell id="0" />
        <mxCell id="1" parent="0" />
        <mxCell id="bzVvlVtNjOLhXiDrr3hi-5" value="Retail_Item" style="swimlane;fontStyle=1;align=center;verticalAlign=top;childLayout=stackLayout;horizontal=1;startSize=26;horizontalStack=0;resizeParent=1;resizeParentMax=0;resizeLast=0;collapsible=1;marginBottom=0;whiteSpace=wrap;html=1;" vertex="1" parent="1">
          <mxGeometry x="345" y="80" width="195" height="208" as="geometry" />
        </mxCell>
        <mxCell id="bzVvlVtNjOLhXiDrr3hi-6" value="__description&lt;div&gt;__untis&lt;/div&gt;&lt;div&gt;__price&lt;/div&gt;" style="text;strokeColor=none;fillColor=none;align=left;verticalAlign=top;spacingLeft=4;spacingRight=4;overflow=hidden;rotatable=0;points=[[0,0.5],[1,0.5]];portConstraint=eastwest;whiteSpace=wrap;html=1;" vertex="1" parent="bzVvlVtNjOLhXiDrr3hi-5">
          <mxGeometry y="26" width="195" height="54" as="geometry" />
        </mxCell>
        <mxCell id="bzVvlVtNjOLhXiDrr3hi-7" value="" style="line;strokeWidth=1;fillColor=none;align=left;verticalAlign=middle;spacingTop=-1;spacingLeft=3;spacingRight=3;rotatable=0;labelPosition=right;points=[];portConstraint=eastwest;strokeColor=inherit;" vertex="1" parent="bzVvlVtNjOLhXiDrr3hi-5">
          <mxGeometry y="80" width="195" height="8" as="geometry" />
        </mxCell>
        <mxCell id="bzVvlVtNjOLhXiDrr3hi-8" value="__init__ (description, units, price)&lt;div&gt;set_units&lt;/div&gt;&lt;div&gt;get_units&lt;/div&gt;&lt;div&gt;set_price&lt;/div&gt;&lt;div&gt;get_price&lt;/div&gt;&lt;div&gt;set_description&lt;/div&gt;&lt;div&gt;get_description&lt;/div&gt;" style="text;strokeColor=none;fillColor=none;align=left;verticalAlign=top;spacingLeft=4;spacingRight=4;overflow=hidden;rotatable=0;points=[[0,0.5],[1,0.5]];portConstraint=eastwest;whiteSpace=wrap;html=1;" vertex="1" parent="bzVvlVtNjOLhXiDrr3hi-5">
          <mxGeometry y="88" width="195" height="120" as="geometry" />
        </mxCell>
        <mxCell id="bzVvlVtNjOLhXiDrr3hi-9" value="CashRegister" style="swimlane;fontStyle=1;align=center;verticalAlign=top;childLayout=stackLayout;horizontal=1;startSize=26;horizontalStack=0;resizeParent=1;resizeParentMax=0;resizeLast=0;collapsible=1;marginBottom=0;whiteSpace=wrap;html=1;" vertex="1" parent="1">
          <mxGeometry x="342.5" y="590" width="200" height="130" as="geometry" />
        </mxCell>
        <mxCell id="bzVvlVtNjOLhXiDrr3hi-10" value="__item_list [ ]" style="text;strokeColor=none;fillColor=none;align=left;verticalAlign=top;spacingLeft=4;spacingRight=4;overflow=hidden;rotatable=0;points=[[0,0.5],[1,0.5]];portConstraint=eastwest;whiteSpace=wrap;html=1;" vertex="1" parent="bzVvlVtNjOLhXiDrr3hi-9">
          <mxGeometry y="26" width="200" height="26" as="geometry" />
        </mxCell>
        <mxCell id="bzVvlVtNjOLhXiDrr3hi-11" value="" style="line;strokeWidth=1;fillColor=none;align=left;verticalAlign=middle;spacingTop=-1;spacingLeft=3;spacingRight=3;rotatable=0;labelPosition=right;points=[];portConstraint=eastwest;strokeColor=inherit;" vertex="1" parent="bzVvlVtNjOLhXiDrr3hi-9">
          <mxGeometry y="52" width="200" height="8" as="geometry" />
        </mxCell>
        <mxCell id="bzVvlVtNjOLhXiDrr3hi-12" value="purchase_item (Retail_Item)&lt;div&gt;get_total (item_list)&lt;/div&gt;&lt;div&gt;show_items (item_list)&lt;/div&gt;&lt;div&gt;clear (item_list)&lt;/div&gt;" style="text;strokeColor=none;fillColor=none;align=left;verticalAlign=top;spacingLeft=4;spacingRight=4;overflow=hidden;rotatable=0;points=[[0,0.5],[1,0.5]];portConstraint=eastwest;whiteSpace=wrap;html=1;" vertex="1" parent="bzVvlVtNjOLhXiDrr3hi-9">
          <mxGeometry y="60" width="200" height="70" as="geometry" />
        </mxCell>
        <mxCell id="bzVvlVtNjOLhXiDrr3hi-17" value="&lt;p style=&quot;margin:0px;margin-top:4px;text-align:center;text-decoration:underline;&quot;&gt;&lt;b&gt;Object: Retail Item&lt;/b&gt;&lt;/p&gt;&lt;hr size=&quot;1&quot; style=&quot;border-style:solid;&quot;&gt;&lt;p style=&quot;margin:0px;margin-left:8px;&quot;&gt;description&lt;/p&gt;&lt;p style=&quot;margin:0px;margin-left:8px;&quot;&gt;units&lt;/p&gt;&lt;p style=&quot;margin:0px;margin-left:8px;&quot;&gt;price&lt;/p&gt;" style="verticalAlign=top;align=left;overflow=fill;html=1;whiteSpace=wrap;" vertex="1" parent="1">
          <mxGeometry x="362.5" y="390" width="160" height="90" as="geometry" />
        </mxCell>
        <mxCell id="bzVvlVtNjOLhXiDrr3hi-18" value="" style="endArrow=open;endFill=1;endSize=12;html=1;rounded=0;exitX=0.5;exitY=0;exitDx=0;exitDy=0;entryX=0.487;entryY=0.971;entryDx=0;entryDy=0;entryPerimeter=0;" edge="1" parent="1" source="bzVvlVtNjOLhXiDrr3hi-17" target="bzVvlVtNjOLhXiDrr3hi-8">
          <mxGeometry width="160" relative="1" as="geometry">
            <mxPoint x="350" y="540" as="sourcePoint" />
            <mxPoint x="510" y="540" as="targetPoint" />
          </mxGeometry>
        </mxCell>
        <mxCell id="bzVvlVtNjOLhXiDrr3hi-19" value="" style="endArrow=open;endFill=1;endSize=12;html=1;rounded=0;entryX=0.5;entryY=1;entryDx=0;entryDy=0;exitX=0.5;exitY=0;exitDx=0;exitDy=0;" edge="1" parent="1" source="bzVvlVtNjOLhXiDrr3hi-9" target="bzVvlVtNjOLhXiDrr3hi-17">
          <mxGeometry width="160" relative="1" as="geometry">
            <mxPoint x="350" y="540" as="sourcePoint" />
            <mxPoint x="510" y="540" as="targetPoint" />
          </mxGeometry>
        </mxCell>
      </root>
    </mxGraphModel>
  </diagram>
</mxfile>
